<?xml version="1.0" standalone="no"?>
<!DOCTYPE svg PUBLIC "-//W3C//DTD SVG 20010904//EN"
 "http://www.w3.org/TR/2001/REC-SVG-20010904/DTD/svg10.dtd">
<svg version="1.0" xmlns="http://www.w3.org/2000/svg"
 width="1000.000000pt" height="572.000000pt" viewBox="0 0 1000.000000 572.000000"
 preserveAspectRatio="xMidYMid meet">

<g transform="translate(0.000000,572.000000) scale(0.100000,-0.100000)"
fill="#000000" stroke="none">
<path d="M7157 5345 c-109 -29 -205 -56 -212 -59 -11 -4 -9 -21 11 -93 44
-157 51 -138 -71 -217 -346 -222 -898 -407 -1300 -435 -209 -15 -265 -41 -480
-230 -325 -284 -917 -864 -982 -961 -64 -98 -81 -204 -44 -285 22 -50 86 -109
136 -125 49 -16 160 -9 207 14 21 10 75 51 121 92 l84 73 28 -29 c67 -70 210
-89 305 -40 25 13 104 80 175 150 l130 126 130 38 c72 21 191 56 265 78 l135
40 280 8 c254 7 289 10 378 34 114 29 278 105 355 163 30 23 106 90 170 149
124 117 272 244 285 244 4 0 7 -6 7 -14 0 -28 23 -28 152 4 l130 33 -6 36
c-11 65 -27 111 -39 111 -7 0 -36 -7 -64 -14 -29 -8 -55 -11 -57 -8 -2 4 -45
156 -95 337 -50 182 -109 393 -131 469 -22 77 -39 140 -37 141 1 1 67 19 147
40 80 21 148 40 152 44 4 3 -1 35 -11 71 -14 49 -23 65 -37 67 -10 1 -108 -22
-217 -52z m-28 -772 c45 -161 82 -301 84 -311 1 -13 -30 -44 -98 -98 -55 -45
-158 -136 -229 -203 -150 -141 -243 -207 -353 -249 -136 -53 -215 -64 -473
-68 -129 -2 -260 -9 -290 -15 -30 -6 -162 -42 -292 -80 -130 -38 -249 -69
-263 -69 -33 0 -81 24 -89 45 -3 9 -6 34 -6 55 0 45 41 100 87 118 16 6 251
77 523 158 272 81 496 148 497 148 3 2 -38 139 -42 144 -2 2 -164 -45 -362
-103 -197 -59 -432 -129 -522 -156 -106 -31 -179 -58 -205 -76 -54 -38 -104
-106 -118 -159 -11 -39 -26 -56 -122 -137 -61 -50 -194 -164 -296 -253 -102
-88 -195 -166 -207 -172 -43 -24 -122 -4 -137 33 -27 72 8 121 293 408 398
402 795 764 891 812 60 30 74 32 229 45 174 14 304 40 531 105 295 84 553 194
770 328 69 43 107 61 112 53 3 -6 43 -143 87 -303z m-2092 -1178 l37 -36 -75
-75 c-41 -42 -86 -82 -101 -90 -36 -19 -92 -18 -130 2 l-32 16 54 47 c30 25
86 74 125 108 38 34 74 62 78 62 4 1 24 -15 44 -34z"/>
<path d="M4130 2746 l0 -75 53 -3 52 -3 3 -65 c2 -36 1 -93 -3 -127 l-6 -61
-262 -4 c-243 -4 -269 -7 -360 -31 -110 -29 -272 -103 -368 -167 -94 -63 -254
-231 -317 -332 -110 -178 -172 -388 -172 -585 l0 -53 -75 0 -75 0 0 -80 0 -80
640 0 640 0 0 -50 0 -50 -480 0 c-412 0 -486 -2 -518 -16 -79 -32 -131 -111
-132 -196 l0 -46 -88 -4 c-77 -3 -94 -7 -129 -31 -124 -86 -115 -273 17 -347
l45 -25 1685 -3 c1202 -2 1700 1 1738 9 141 29 208 195 125 312 -45 65 -92 87
-190 87 l-83 0 0 53 c0 70 -33 132 -89 172 l-43 30 -494 3 -494 3 0 49 0 50
640 0 640 0 0 80 0 80 -80 0 -80 0 0 79 c0 452 -327 889 -775 1034 -144 47
-228 57 -476 57 l-229 0 0 130 0 130 50 0 50 0 0 75 0 75 -180 0 -180 0 0 -74z
m835 -513 c299 -80 529 -267 660 -536 53 -110 83 -228 92 -359 l6 -98 -1412 0
-1412 0 7 93 c8 117 44 262 89 355 117 247 343 446 593 522 155 47 184 49 757
46 515 -2 544 -3 620 -23z m-375 -1203 l0 -50 -280 0 -280 0 0 50 0 50 280 0
280 0 0 -50z m1100 -213 c18 -9 25 -21 25 -42 0 -56 14 -55 -762 -55 l-713 0
0 -75 0 -75 882 -2 882 -3 15 -27 c14 -24 14 -28 -3 -47 l-19 -21 -1687 0
c-1298 0 -1689 3 -1698 12 -19 19 -15 66 7 78 11 6 89 10 180 10 l161 0 0 75
c0 70 -2 76 -24 84 -40 16 -40 76 0 92 10 4 629 8 1374 8 1073 1 1360 -2 1380
-12z"/>
</g>
</svg>
