<?xml version="1.0" standalone="no"?>
<!DOCTYPE svg PUBLIC "-//W3C//DTD SVG 20010904//EN"
 "http://www.w3.org/TR/2001/REC-SVG-20010904/DTD/svg10.dtd">
<svg version="1.0" xmlns="http://www.w3.org/2000/svg"
 width="3000.000000pt" height="1716.000000pt" viewBox="0 0 3000.000000 1716.000000"
 preserveAspectRatio="xMidYMid meet">

<g transform="translate(0.000000,1716.000000) scale(0.100000,-0.100000)"
fill="#000000" stroke="none">
<path d="M22115 16204 c-11 -3 -44 -11 -72 -19 -81 -23 -152 -42 -220 -59
-228 -58 -363 -93 -463 -121 -25 -7 -74 -20 -110 -30 -111 -29 -221 -59 -325
-89 -27 -8 -64 -17 -82 -21 -17 -3 -34 -13 -37 -21 -3 -8 4 -50 15 -92 12 -42
25 -93 29 -112 4 -19 15 -62 25 -95 9 -33 23 -83 30 -112 7 -28 16 -56 19 -62
4 -5 11 -29 16 -53 5 -24 16 -67 24 -96 8 -29 13 -59 10 -67 -3 -7 -24 -26
-47 -42 -23 -15 -46 -31 -52 -36 -47 -35 -102 -75 -110 -78 -5 -2 -43 -26 -83
-54 -97 -66 -123 -83 -147 -95 -11 -6 -33 -19 -50 -30 -16 -11 -39 -24 -50
-30 -11 -6 -36 -20 -55 -32 -111 -67 -692 -358 -715 -358 -3 0 -33 -13 -68
-29 -140 -66 -198 -91 -210 -91 -7 0 -21 -6 -32 -13 -11 -8 -29 -16 -40 -20
-11 -3 -45 -15 -75 -27 -107 -41 -135 -51 -165 -60 -34 -9 -90 -29 -120 -41
-11 -5 -54 -20 -95 -34 -41 -13 -106 -35 -145 -48 -38 -13 -97 -32 -130 -42
-33 -10 -78 -24 -100 -30 -64 -20 -202 -60 -310 -90 -33 -9 -76 -22 -95 -28
-19 -6 -53 -14 -75 -18 -41 -8 -134 -31 -195 -47 -19 -5 -71 -17 -115 -27 -44
-9 -98 -21 -120 -27 -22 -6 -65 -14 -95 -18 -30 -4 -80 -12 -110 -18 -205 -39
-478 -68 -725 -77 -277 -9 -533 -81 -730 -204 -22 -14 -48 -30 -57 -36 -103
-63 -330 -245 -569 -459 -25 -23 -76 -68 -114 -101 -38 -33 -73 -65 -79 -71
-6 -5 -76 -68 -156 -139 -79 -71 -151 -136 -160 -145 -9 -8 -65 -60 -126 -115
-116 -107 -235 -217 -268 -251 -12 -11 -100 -94 -196 -184 -441 -414 -1481
-1456 -1702 -1705 -106 -120 -207 -281 -268 -430 -50 -121 -61 -375 -21 -500
68 -217 237 -385 471 -466 58 -20 85 -23 235 -23 152 0 177 2 235 23 143 50
273 128 371 222 48 45 100 93 179 159 36 30 83 72 106 93 78 72 75 72 125 21
253 -259 675 -320 989 -141 93 52 152 107 510 462 190 188 355 347 367 354 12
6 32 11 45 11 12 0 40 6 63 14 22 8 67 22 100 31 33 10 78 23 100 30 22 6 67
20 100 30 83 24 153 45 200 60 22 7 69 20 105 30 36 10 83 23 105 30 22 7 66
20 98 29 104 29 171 49 212 61 22 7 67 21 100 30 33 10 78 24 100 30 184 57
249 69 545 95 58 5 328 10 600 11 501 1 651 9 855 45 133 23 306 64 375 89 79
28 106 37 135 45 17 5 55 18 85 30 30 12 67 25 81 30 14 4 34 12 45 17 10 6
35 17 54 25 55 24 231 113 270 136 19 12 52 31 73 42 109 60 323 224 461 355
6 6 76 71 156 145 80 74 174 162 210 197 96 91 148 139 214 197 33 28 87 77
120 108 88 81 347 288 375 299 28 11 41 -1 41 -39 0 -26 17 -63 34 -74 12 -8
29 -5 119 17 31 8 85 22 120 31 34 8 76 19 93 25 16 5 50 13 75 19 90 20 166
38 244 60 44 13 94 25 110 28 68 11 68 22 0 265 -8 30 -15 65 -15 78 0 25 -19
84 -34 107 -8 14 -29 12 -121 -13 -27 -8 -79 -21 -115 -30 -36 -9 -82 -22
-104 -28 -35 -10 -40 -9 -57 12 -11 13 -19 33 -19 44 0 12 -6 39 -14 62 -8 22
-22 69 -31 105 -10 36 -23 85 -30 110 -8 25 -21 72 -30 105 -9 33 -23 80 -30
105 -7 25 -20 74 -30 110 -34 135 -47 180 -90 330 -7 25 -21 74 -30 110 -10
36 -24 88 -32 115 -7 28 -20 73 -28 100 -19 69 -42 150 -59 210 -7 28 -21 77
-30 110 -18 66 -35 128 -90 320 -7 28 -21 77 -30 110 -40 143 -49 172 -61 210
-7 22 -21 69 -30 105 -17 64 -36 130 -58 200 -6 19 -14 51 -18 70 -4 19 -17
67 -28 105 -27 93 -27 103 7 110 15 3 50 12 77 20 28 8 79 21 115 31 36 9 85
23 109 30 25 8 54 14 65 14 11 0 38 6 61 14 22 8 66 21 98 30 111 31 162 45
187 51 92 21 147 39 162 52 15 13 15 19 3 56 -7 23 -20 67 -28 97 -8 30 -22
84 -31 120 -43 163 -44 165 -101 154z m-974 -1609 c11 -42 27 -101 54 -195 9
-30 23 -80 31 -110 9 -30 22 -75 29 -100 7 -25 20 -70 28 -100 23 -80 48 -169
63 -220 19 -69 45 -159 61 -220 8 -30 21 -75 28 -100 7 -25 20 -74 30 -110 29
-114 64 -242 118 -430 8 -30 22 -80 31 -110 8 -30 22 -79 31 -109 8 -30 12
-58 8 -61 -5 -4 -62 -48 -128 -99 -211 -160 -322 -251 -566 -463 -111 -97 -88
-75 -270 -253 -239 -233 -354 -338 -472 -427 -45 -34 -84 -64 -87 -67 -23 -26
-223 -147 -320 -193 -117 -57 -209 -98 -219 -98 -5 0 -22 -7 -37 -15 -16 -8
-39 -15 -51 -15 -12 0 -24 -4 -28 -9 -3 -5 -20 -12 -38 -16 -17 -4 -50 -12
-72 -20 -102 -33 -195 -55 -365 -85 -137 -25 -311 -33 -750 -35 -645 -4 -862
-17 -1014 -61 -26 -8 -58 -14 -70 -14 -13 0 -42 -6 -67 -14 -24 -7 -71 -21
-104 -31 -33 -10 -78 -23 -100 -30 -22 -6 -67 -20 -100 -30 -33 -9 -78 -23
-100 -30 -55 -17 -138 -41 -210 -61 -104 -28 -240 -68 -310 -89 -22 -7 -67
-21 -100 -30 -33 -10 -78 -24 -100 -30 -22 -7 -67 -21 -100 -30 -33 -10 -80
-25 -105 -34 -68 -24 -192 -19 -255 9 -67 31 -152 119 -161 166 -10 55 3 187
23 230 27 60 87 138 137 179 43 35 171 95 203 95 15 0 80 19 153 45 19 7 64
21 100 30 36 10 83 23 105 30 47 15 117 36 200 60 33 10 78 24 100 30 39 13
107 32 215 63 30 8 73 21 95 27 22 7 67 21 100 30 33 10 71 21 85 26 14 4 59
17 100 29 41 12 93 28 115 35 22 7 67 21 100 30 33 10 76 23 95 30 19 7 62 20
95 30 103 30 148 43 210 61 33 9 78 23 100 29 22 7 67 21 100 30 33 10 78 24
100 31 22 7 67 20 100 29 69 18 152 42 210 60 22 7 67 21 100 30 33 10 76 23
95 30 81 28 139 45 154 45 8 0 30 6 48 14 18 8 45 17 61 21 29 6 34 25 18 67
-4 13 -16 50 -26 83 -24 82 -45 152 -60 200 -7 22 -16 52 -19 68 -7 31 -26 34
-83 13 -21 -7 -65 -21 -98 -31 -33 -9 -78 -23 -100 -30 -39 -12 -116 -35 -205
-61 -25 -7 -74 -20 -110 -30 -36 -9 -83 -22 -105 -29 -22 -7 -67 -21 -100 -30
-33 -10 -78 -24 -100 -30 -22 -7 -67 -21 -100 -30 -33 -10 -78 -24 -100 -30
-22 -7 -67 -21 -100 -30 -33 -10 -76 -23 -95 -30 -19 -7 -62 -20 -95 -30 -33
-9 -78 -23 -100 -30 -22 -6 -67 -20 -100 -29 -33 -10 -73 -22 -90 -28 -16 -5
-46 -14 -65 -18 -19 -5 -66 -18 -105 -30 -38 -12 -86 -25 -105 -29 -19 -5 -71
-21 -115 -35 -81 -27 -123 -40 -230 -71 -33 -10 -78 -24 -100 -30 -22 -7 -67
-21 -100 -30 -33 -10 -78 -23 -100 -30 -22 -6 -65 -19 -95 -28 -52 -15 -88
-26 -220 -64 -30 -8 -73 -22 -95 -29 -23 -8 -47 -14 -54 -14 -18 0 -181 -82
-234 -118 -63 -44 -183 -167 -225 -232 -69 -105 -124 -234 -137 -317 -6 -40
-24 -66 -76 -108 -63 -52 -333 -278 -348 -293 -30 -28 -141 -124 -199 -172
-43 -36 -276 -233 -442 -376 -14 -12 -61 -52 -105 -90 -44 -38 -82 -71 -85
-75 -3 -3 -72 -64 -155 -134 -82 -71 -152 -132 -155 -135 -3 -3 -21 -18 -40
-34 -19 -15 -57 -49 -85 -75 -151 -143 -287 -183 -427 -126 -74 30 -112 64
-139 124 -43 98 -14 216 96 391 68 107 160 205 850 895 614 615 811 807 1144
1115 69 63 159 147 200 186 42 39 126 115 186 170 61 54 112 101 115 105 9 10
281 251 395 349 61 52 112 97 115 101 11 14 249 208 300 244 66 48 69 51 162
96 183 92 212 97 648 124 208 14 316 25 510 55 133 20 350 63 425 82 22 6 58
14 80 18 22 4 63 13 90 20 28 6 77 19 110 27 33 8 80 20 105 27 25 8 72 21
105 31 33 10 78 23 100 30 22 7 69 20 105 30 36 10 83 23 105 30 43 14 106 32
200 60 33 9 76 23 95 30 19 7 64 22 100 34 96 30 166 54 248 85 23 9 61 23 85
32 23 9 60 23 82 31 38 15 66 26 138 57 17 8 88 37 157 66 277 116 574 260
810 393 25 14 56 32 70 40 29 15 259 154 295 177 12 8 51 33 86 55 35 21 82
52 104 67 37 25 41 26 53 10 7 -9 17 -35 23 -57z m-6092 -4354 c18 -22 61 -63
96 -91 36 -29 65 -57 65 -63 0 -7 -105 -118 -232 -247 -290 -292 -309 -305
-468 -303 -81 0 -114 5 -145 19 -47 23 -93 52 -116 76 -16 15 -15 18 9 46 15
17 69 66 120 109 161 134 258 216 313 265 30 26 107 92 172 147 132 113 131
112 186 42z"/>
<path d="M12405 8456 c-17 -12 -18 -26 -12 -220 3 -113 9 -211 12 -216 4 -6
65 -10 144 -10 112 0 141 -3 151 -15 18 -22 9 -717 -10 -740 -11 -13 -77 -15
-544 -15 -729 -1 -952 -17 -1261 -89 -102 -24 -359 -103 -393 -120 -9 -5 -37
-17 -62 -26 -25 -9 -61 -24 -80 -32 -19 -8 -48 -21 -65 -28 -622 -267 -1215
-787 -1553 -1361 -99 -169 -242 -457 -242 -488 0 -7 -7 -21 -15 -32 -8 -10
-15 -25 -15 -32 0 -8 -6 -28 -13 -45 -48 -113 -115 -355 -136 -492 -26 -166
-32 -212 -46 -326 -8 -70 -15 -194 -15 -277 0 -83 -3 -157 -6 -166 -5 -14 -35
-16 -224 -16 -189 0 -219 -2 -224 -16 -3 -9 -6 -107 -6 -218 0 -146 3 -207 13
-219 11 -16 140 -17 1917 -20 l1905 -2 3 -139 c2 -105 -1 -141 -10 -148 -7 -4
-649 -8 -1426 -8 -1570 0 -1452 5 -1602 -68 -101 -49 -222 -169 -268 -264 -53
-110 -67 -170 -68 -301 0 -65 -5 -122 -10 -126 -5 -5 -106 -11 -224 -13 l-215
-5 -80 -33 c-388 -161 -516 -606 -271 -940 72 -99 161 -168 266 -208 115 -44
-118 -42 5210 -41 5283 0 5111 -1 5220 41 144 55 275 180 343 328 50 107 63
295 28 405 -43 133 -81 198 -171 286 -57 56 -70 65 -152 105 -125 60 -109 57
-353 63 l-230 6 0 140 c-1 110 -5 151 -19 190 -63 174 -164 291 -316 369 -126
64 -16 60 -1590 66 l-1435 5 0 145 0 145 1910 5 c1051 3 1910 6 1911 8 4 11
12 437 7 448 -4 11 -43 14 -222 14 -155 0 -220 3 -229 12 -8 8 -12 51 -13 123
-1 289 -28 532 -86 785 -21 93 -68 258 -85 295 -4 11 -12 34 -17 50 -14 45
-46 127 -69 176 -52 112 -185 377 -202 404 -11 17 -23 36 -27 44 -14 30 -157
238 -191 280 -21 24 -49 59 -64 78 -189 245 -549 570 -802 725 -48 29 -100 61
-114 70 -30 19 -47 28 -142 80 -118 65 -284 144 -329 159 -14 4 -51 17 -81 29
-113 43 -353 116 -405 123 -16 2 -50 9 -75 15 -64 16 -187 38 -320 58 -96 14
-225 18 -775 23 l-660 6 0 380 0 380 150 5 150 5 -4 220 c-2 121 -5 223 -8
228 -2 4 -237 7 -522 7 -419 0 -521 -3 -536 -14z m2025 -1687 c47 -5 121 -14
165 -19 171 -18 504 -102 660 -166 279 -114 375 -164 565 -291 222 -150 352
-255 525 -428 121 -119 333 -402 417 -554 13 -23 37 -68 55 -99 75 -135 167
-342 193 -437 5 -16 13 -43 18 -60 6 -16 18 -55 26 -85 8 -30 20 -75 27 -100
7 -25 16 -70 20 -100 3 -30 11 -80 17 -110 30 -151 54 -521 38 -584 l-6 -26
-4208 0 c-3260 0 -4211 3 -4220 12 -31 31 14 620 57 738 5 14 12 41 15 60 3
19 15 67 26 105 12 39 26 88 31 110 6 22 14 44 20 50 5 5 9 17 9 26 0 9 9 38
21 65 11 27 25 60 31 74 58 140 76 179 125 265 12 22 30 55 39 74 26 49 174
269 228 337 127 158 296 338 391 416 247 201 440 327 670 437 72 34 138 66
147 72 54 29 335 118 443 140 22 4 63 13 90 19 120 27 197 39 305 50 63 7 120
14 125 15 29 9 2859 4 2935 -6z m-655 -3679 l0 -145 -840 0 -840 0 -3 134 c-1
74 0 141 2 148 4 11 161 13 843 11 l838 -3 0 -145z m3275 -624 c66 -20 105
-72 105 -141 0 -44 -5 -59 -31 -91 -17 -21 -44 -43 -60 -48 -20 -7 -725 -12
-2189 -16 l-2160 -5 0 -225 0 -225 2630 -5 c2307 -4 2633 -7 2657 -20 15 -8
38 -33 52 -54 47 -72 27 -162 -46 -206 -33 -20 -61 -20 -5073 -20 -4800 0
-5041 1 -5067 18 -50 33 -71 69 -71 126 0 63 12 86 60 123 l36 28 486 5 486 5
3 214 c2 160 -1 217 -10 229 -7 8 -32 23 -55 33 -46 20 -79 63 -89 116 -10 52
30 123 86 151 l44 22 4081 0 c3376 0 4088 -3 4125 -14z"/>
</g>
</svg>
