<svg xmlns="http://www.w3.org/2000/svg" width="48" height="48" viewBox="0.001 0.003 24 24"><path d="m23.538 8.656-10.8-8.4a1.2 1.2 0 0 0-.736-.253 1.2 1.2 0 0 0-.737.253l-10.8 8.4A1.2 1.2 0 0 0 .006 9.71a1.2 1.2 0 0 0 .06.282 1.2 1.2 0 0 0 1.136.81h1.2v13.2h7.2v-9.6h4.8v9.6h7.2v-13.2h1.2a1.2 1.2 0 0 0 1.135-.81 1.202 1.202 0 0 0 .06-.279 1.201 1.201 0 0 0-.459-1.058Zm-3.137.947v13.2h-4.8v-8.4a1.2 1.2 0 0 0-1.2-1.2h-4.8a1.2 1.2 0 0 0-1.2 1.2v8.4h-4.8v-13.2h-2.4l10.8-8.4 10.8 8.4h-2.4Z" fill="#111" fill-rule="evenodd" data-name="Icon"/></svg>