<svg xmlns="http://www.w3.org/2000/svg" xmlns:xlink="http://www.w3.org/1999/xlink" version="1.1" width="1000" height="1000" viewBox="0 0 1000 1000" xml:space="preserve">
<desc>Created with Fabric.js 3.5.0</desc>
<defs>
</defs>
<rect x="0" y="0" width="100%" height="100%" fill="#ffffff"/>
<g transform="matrix(1.7157 0 0 1.7157 500.0056 500.0056)" id="352866">
<g style="" vector-effect="non-scaling-stroke">
		<g transform="matrix(0.1333 0 0 -0.1333 -0.0646 -0.0016)">
<path style="stroke: none; stroke-width: 1; stroke-dasharray: none; stroke-linecap: butt; stroke-dashoffset: 0; stroke-linejoin: miter; stroke-miterlimit: 4; is-custom-font: none; font-file-url: none; fill: rgb(0,0,0); fill-rule: nonzero; opacity: 1;" transform=" translate(-3060.0355, -3059.4924)" d="M 2805 5129 c -849 -107 -1554 -728 -1764 -1554 c -41 -159 -53 -259 -58 -460 c -6 -235 9 -373 61 -578 c 210 -817 905 -1432 1741 -1542 c 145 -19 407 -19 545 -1 c 796 107 1458 654 1708 1412 c 79 239 107 439 99 723 c -5 211 -22 326 -77 517 c -178 614 -643 1120 -1249 1358 c -125 49 -333 102 -476 121 c -126 16 -413 18 -530 4 z m 395 -29 c 210 -16 373 -51 570 -122 c 653 -237 1150 -816 1294 -1508 c 56 -268 52 -598 -10 -870 c -45 -201 -172 -494 -289 -670 c -294 -441 -772 -767 -1272 -868 c -143 -30 -159 -32 -300 -42 c -472 -33 -973 114 -1348 395 c -447 336 -728 808 -811 1360 c -19 131 -22 410 -5 535 c 89 649 457 1204 1011 1522 c 270 156 557 244 870 268 c 137 10 152 10 290 0 z" stroke-linecap="round"/>
</g>
		<g transform="matrix(0.1333 0 0 -0.1333 -20.1486 -94.0151)">
<path style="stroke: none; stroke-width: 1; stroke-dasharray: none; stroke-linecap: butt; stroke-dashoffset: 0; stroke-linejoin: miter; stroke-miterlimit: 4; is-custom-font: none; font-file-url: none; fill: rgb(0,0,0); fill-rule: nonzero; opacity: 1;" transform=" translate(-2909.1953, -3764.9967)" d="M 1857 3959 l -186 -270 l 135 -132 c 153 -148 183 -171 263 -200 c 69 -25 239 -35 309 -17 c 26 6 122 47 214 90 c 92 44 187 84 210 91 c 27 7 135 12 283 13 c 270 1 283 4 311 73 c 21 49 4 96 -49 134 c -83 60 -236 83 -454 68 c -76 -5 -207 -12 -290 -16 c -131 -5 -153 -4 -153 9 c 0 12 45 19 235 38 c 291 28 474 25 575 -9 c 122 -42 210 -133 210 -218 c 0 -41 13 -50 225 -155 c 284 -142 403 -182 434 -145 c 6 8 14 28 17 45 c 11 57 -41 115 -237 264 c -313 238 -583 365 -921 432 c -181 37 -307 47 -516 44 c -184 -2 -188 -2 -245 24 c -32 15 -84 45 -115 68 c -32 22 -60 40 -63 40 c -3 0 -90 -122 -192 -271 z" stroke-linecap="round"/>
</g>
		<g transform="matrix(0.1333 0 0 -0.1333 16.1311 27.9834)">
<path style="stroke: none; stroke-width: 1; stroke-dasharray: none; stroke-linecap: butt; stroke-dashoffset: 0; stroke-linejoin: miter; stroke-miterlimit: 4; is-custom-font: none; font-file-url: none; fill: rgb(0,0,0); fill-rule: nonzero; opacity: 1;" transform=" translate(-3181.2305, -2850)" d="M 3076 3337 c -12 -9 -17 -23 -14 -47 c 3 -33 5 -35 46 -38 c 39 -3 42 -5 42 -33 c 0 -27 -3 -29 -39 -29 c -60 0 -208 -28 -295 -56 c -162 -52 -295 -134 -407 -250 c -104 -110 -151 -198 -191 -359 c -30 -124 -30 -129 -14 -150 c 14 -20 28 -20 965 -23 l 952 -2 l 24 24 c 28 28 32 58 10 76 c -8 7 -15 24 -15 37 c 0 36 -26 132 -51 188 c -79 179 -249 337 -458 426 c -100 42 -245 78 -348 86 l -83 6 l 0 28 c 0 27 3 29 38 29 c 43 0 62 14 62 46 c 0 43 -24 54 -119 54 c -56 0 -94 -5 -105 -13 z" stroke-linecap="round"/>
</g>
		<g transform="matrix(0.1333 0 0 -0.1333 15.9626 120.8558)">
<path style="stroke: none; stroke-width: 1; stroke-dasharray: none; stroke-linecap: butt; stroke-dashoffset: 0; stroke-linejoin: miter; stroke-miterlimit: 4; is-custom-font: none; font-file-url: none; fill: rgb(0,0,0); fill-rule: nonzero; opacity: 1;" transform=" translate(-3180, -2153.5455)" d="M 2275 2291 c -31 -13 -47 -37 -60 -89 c -12 -45 -14 -47 -55 -53 c -56 -8 -100 -53 -100 -104 l 0 -35 l 1120 0 c 982 0 1120 2 1120 15 c 0 30 -33 94 -55 109 c -14 9 -40 16 -59 16 c -33 0 -36 3 -42 38 c -8 44 -32 88 -53 99 c -22 11 -1791 14 -1816 4 z" stroke-linecap="round"/>
</g>
</g>
</g>
</svg>