<?xml version="1.0" standalone="no"?>
<!DOCTYPE svg PUBLIC "-//W3C//DTD SVG 20010904//EN"
 "http://www.w3.org/TR/2001/REC-SVG-20010904/DTD/svg10.dtd">
<svg version="1.0" xmlns="http://www.w3.org/2000/svg"
 width="612.000000pt" height="612.000000pt" viewBox="0 0 612.000000 612.000000"
 preserveAspectRatio="xMidYMid meet">

<g transform="translate(0.000000,612.000000) scale(0.100000,-0.100000)"
fill="#000000" stroke="none">
<path d="M2805 5129 c-849 -107 -1554 -728 -1764 -1554 -41 -159 -53 -259 -58
-460 -6 -235 9 -373 61 -578 210 -817 905 -1432 1741 -1542 145 -19 407 -19
545 -1 796 107 1458 654 1708 1412 79 239 107 439 99 723 -5 211 -22 326 -77
517 -178 614 -643 1120 -1249 1358 -125 49 -333 102 -476 121 -126 16 -413 18
-530 4z m395 -29 c210 -16 373 -51 570 -122 653 -237 1150 -816 1294 -1508 56
-268 52 -598 -10 -870 -45 -201 -172 -494 -289 -670 -294 -441 -772 -767
-1272 -868 -143 -30 -159 -32 -300 -42 -472 -33 -973 114 -1348 395 -447 336
-728 808 -811 1360 -19 131 -22 410 -5 535 89 649 457 1204 1011 1522 270 156
557 244 870 268 137 10 152 10 290 0z"/>
<path d="M1857 3959 l-186 -270 135 -132 c153 -148 183 -171 263 -200 69 -25
239 -35 309 -17 26 6 122 47 214 90 92 44 187 84 210 91 27 7 135 12 283 13
270 1 283 4 311 73 21 49 4 96 -49 134 -83 60 -236 83 -454 68 -76 -5 -207
-12 -290 -16 -131 -5 -153 -4 -153 9 0 12 45 19 235 38 291 28 474 25 575 -9
122 -42 210 -133 210 -218 0 -41 13 -50 225 -155 284 -142 403 -182 434 -145
6 8 14 28 17 45 11 57 -41 115 -237 264 -313 238 -583 365 -921 432 -181 37
-307 47 -516 44 -184 -2 -188 -2 -245 24 -32 15 -84 45 -115 68 -32 22 -60 40
-63 40 -3 0 -90 -122 -192 -271z"/>
<path d="M3076 3337 c-12 -9 -17 -23 -14 -47 3 -33 5 -35 46 -38 39 -3 42 -5
42 -33 0 -27 -3 -29 -39 -29 -60 0 -208 -28 -295 -56 -162 -52 -295 -134 -407
-250 -104 -110 -151 -198 -191 -359 -30 -124 -30 -129 -14 -150 14 -20 28 -20
965 -23 l952 -2 24 24 c28 28 32 58 10 76 -8 7 -15 24 -15 37 0 36 -26 132
-51 188 -79 179 -249 337 -458 426 -100 42 -245 78 -348 86 l-83 6 0 28 c0 27
3 29 38 29 43 0 62 14 62 46 0 43 -24 54 -119 54 -56 0 -94 -5 -105 -13z"/>
<path d="M2275 2291 c-31 -13 -47 -37 -60 -89 -12 -45 -14 -47 -55 -53 -56 -8
-100 -53 -100 -104 l0 -35 1120 0 c982 0 1120 2 1120 15 0 30 -33 94 -55 109
-14 9 -40 16 -59 16 -33 0 -36 3 -42 38 -8 44 -32 88 -53 99 -22 11 -1791 14
-1816 4z"/>
</g>
</svg>
