<svg xmlns="http://www.w3.org/2000/svg" width="40.829" height="48" viewBox="328 1360 20.414 24"><g data-name="avatar"><path d="M348.413 1379.065v-.015a.996.996 0 0 0-.002-.06l-.003-.048a.662.662 0 0 1 0-.016c-.028-.916-.086-2.973-1.833-3.847a3.359 3.359 0 0 0-.418-.174.377.377 0 0 0-.012-.004l-.031-.009a.307.307 0 0 1-.007-.002 11.644 11.644 0 0 1-1.305-.42 14.998 14.998 0 0 1-2.738-1.403 3.825 3.825 0 0 1-.081-.055.67.67 0 0 0-.935.163.665.665 0 0 0-.114.276c-.04.246.06.505.278.659a4.116 4.116 0 0 0 .056.038c.348.237 2.204 1.449 4.481 2.034 1.158.413 1.287 1.65 1.322 2.783a2.133 2.133 0 0 0 0 .064.64.64 0 0 0 .005.06 8.718 8.718 0 0 1 0 .086c.001.446-.03 1.077-.104 1.45a9.003 9.003 0 0 1-.326.176c-1.023.526-3.487 1.586-7.038 1.817a21.515 21.515 0 0 1-1.398.045c-4.781 0-7.957-1.585-8.767-2.043-.078-.386-.113-1.05-.105-1.497a6.294 6.294 0 0 1 0-.038c0-.036.004-.07.005-.108a.663.663 0 0 0 0-.017 13.536 13.536 0 0 1 .017-.384c.06-1.016.277-2.033 1.305-2.399 2.19-.563 3.99-1.709 4.435-2.003a30.45 30.45 0 0 0 .102-.069.67.67 0 0 0 .189-.898.68.68 0 0 0-.024-.037.672.672 0 0 0-.37-.26.666.666 0 0 0-.528.073.68.68 0 0 0-.036.023c-.02.015-1.72 1.2-3.842 1.803a10.475 10.475 0 0 1-.284.076l-.05.015a3.17 3.17 0 0 0-.806.408c-1.212.856-1.39 2.372-1.433 3.29a19.515 19.515 0 0 0-.012.323 2.136 2.136 0 0 1 0 .064.64.64 0 0 1-.005.06v.015c-.004.25-.01 1.503.23 2.187a1.715 1.715 0 0 0 .024.064.637.637 0 0 0 .258.313c.132.088 2.953 1.885 7.752 2.294a22.981 22.981 0 0 0 1.95.082c5.979 0 9.552-2.281 9.701-2.376a.665.665 0 0 0 .259-.313c.237-.632.243-1.873.239-2.206a6.309 6.309 0 0 0 0-.04Z" fill="#111" fill-rule="evenodd" data-name="Icon"/><path d="M338.26 1360h-.085a5.59 5.59 0 0 0-.427.017 5.512 5.512 0 0 0-2.005.535 4.743 4.743 0 0 0-.242.129 4.507 4.507 0 0 0-.398.254c-.813.58-1.658 1.596-1.948 3.357a7.92 7.92 0 0 0-.094.917c-.035.352-.353 4.05 1.56 6.207a4.418 4.418 0 0 0 2.837 1.469 5.968 5.968 0 0 0 .662.047h.16a5.306 5.306 0 0 0 1.677-.285 4.335 4.335 0 0 0 1.826-1.231c1.914-2.157 1.596-5.855 1.56-6.207-.124-2.65-1.376-3.917-2.41-4.508a5.263 5.263 0 0 0-1.852-.633 6.38 6.38 0 0 0-.822-.068Zm-.09 1.347h.06c1.225.027 3.233.485 3.69 3.13a6.547 6.547 0 0 1 .087.816.232.232 0 0 0 0 .023.05.05 0 0 0 .005.017.727.727 0 0 1 .002.018c.017.179.14 1.646-.224 3.113a4.847 4.847 0 0 1-1.006 2.062 3.072 3.072 0 0 1-1.916 1.015 4.599 4.599 0 0 1-.643.049h-.05a4.178 4.178 0 0 1-1.06-.137 2.984 2.984 0 0 1-1.495-.927c-1.575-1.769-1.237-5.163-1.232-5.193a.112.112 0 0 1 .002-.02l.003-.018a.035.035 0 0 0 0-.002 6.273 6.273 0 0 1 .138-1.077c.572-2.567 2.676-2.87 3.639-2.87Z" fill="#111" fill-rule="evenodd" data-name="Icon"/></g></svg>