<svg xmlns="http://www.w3.org/2000/svg" width="78" height="66" viewBox="175 1349 26 22"><path d="M199.7 1352.667h-5.633v-1.63a2.08 2.08 0 0 0-1.784-2.005 2.318 2.318 0 0 0-.383-.032h-7.8a2.234 2.234 0 0 0-1.529.595 1.974 1.974 0 0 0-.638 1.442v1.63H176.3a1.339 1.339 0 0 0-.918.356 1.183 1.183 0 0 0-.382.866v9.069a1.228 1.228 0 0 0 .783 1.119 1.362 1.362 0 0 0 .084.03v5.67a1.246 1.246 0 0 0 1.07 1.204 1.389 1.389 0 0 0 .23.019h21.666a1.339 1.339 0 0 0 .918-.357 1.183 1.183 0 0 0 .382-.865v-5.67a1.285 1.285 0 0 0 .717-.584 1.168 1.168 0 0 0 .15-.566v-9.07a1.246 1.246 0 0 0-1.07-1.202 1.389 1.389 0 0 0-.23-.02Zm.06 10.695-.12.015-9.907 1.285v-.588a1.246 1.246 0 0 0-1.07-1.203 1.389 1.389 0 0 0-.23-.02h-.866a1.339 1.339 0 0 0-.918.358 1.183 1.183 0 0 0-.382.865v.588l-10.027-1.3a.44.44 0 0 1-.28-.15.391.391 0 0 1-.093-.254v-9.07a.415.415 0 0 1 .356-.4.463.463 0 0 1 .077-.007h23.4c.24 0 .433.183.433.408v9.069a.412.412 0 0 1-.316.392.46.46 0 0 1-.056.012Zm-.927 6.823h-21.666a.446.446 0 0 1-.306-.119.394.394 0 0 1-.128-.288v-5.53l9.534 1.236v1.035a1.246 1.246 0 0 0 1.07 1.203 1.389 1.389 0 0 0 .23.019h.866a1.339 1.339 0 0 0 .918-.357 1.183 1.183 0 0 0 .382-.865v-1.035l9.534-1.236v5.53a.415.415 0 0 1-.357.4.463.463 0 0 1-.077.007Zm-14.733-20.37h7.8a1.339 1.339 0 0 1 .918.357 1.183 1.183 0 0 1 .382.865v1.63h-.867v-1.63c0-.225-.194-.407-.433-.407h-7.8c-.24 0-.433.182-.433.407v1.63h-.867v-1.63a1.246 1.246 0 0 1 1.07-1.203 1.389 1.389 0 0 1 .23-.02Zm7.367 2.852h-6.934v-1.223h6.934v1.223Zm-3.034 14.259h-.866a.446.446 0 0 1-.306-.119.394.394 0 0 1-.128-.288v-2.445a.415.415 0 0 1 .357-.401.463.463 0 0 1 .077-.006h.866a.446.446 0 0 1 .306.119.394.394 0 0 1 .128.288v2.445c0 .225-.194.407-.434.407Z" fill="#fff" fill-rule="evenodd" data-name="Icon"/></svg>